<svg xmlns="http://www.w3.org/2000/svg" viewBox="0 8.890000343322754 907.52001953125 47.650001525878906" data-asc="0.927734375"><defs/><g><g><g transform="translate(0, 0)"><path d="M28.22 46.39L22.07 46.39L22.07 30.59L6.18 30.59L6.18 46.39L0 46.39L0 10.84L6.18 10.84L6.18 25.63L22.07 25.63L22.07 10.84L28.22 10.84L28.22 46.39ZM41.26 46.39L35.33 46.39L35.33 19.97L41.26 19.97L41.26 46.39M34.96 13.11Q34.96 11.74 35.83 10.84Q36.69 9.94 38.31 9.94Q39.92 9.94 40.80 10.84Q41.67 11.74 41.67 13.11Q41.67 14.45 40.80 15.34Q39.92 16.24 38.31 16.24Q36.69 16.24 35.83 15.34Q34.96 14.45 34.96 13.11ZM67.26 46.39L61.11 46.39L61.11 10.84L67.26 10.84L67.26 46.39ZM77.76 11.94L77.12 21.48L73.24 21.48L73.24 8.89L77.76 8.89L77.76 11.94ZM87.82 19.97L87.99 22.73Q90.77 19.48 95.61 19.48Q100.90 19.48 102.86 23.54Q105.74 19.48 110.96 19.48Q115.33 19.48 117.47 21.90Q119.60 24.32 119.65 29.03L119.65 46.39L113.72 46.39L113.72 29.20Q113.72 26.68 112.62 25.51Q111.52 24.34 108.98 24.34Q106.96 24.34 105.68 25.43Q104.39 26.51 103.88 28.27L103.91 46.39L97.97 46.39L97.97 29.00Q97.85 24.34 93.21 24.34Q89.65 24.34 88.16 27.25L88.16 46.39L82.23 46.39L82.23 19.97L87.82 19.97ZM146.78 10.84L157.03 38.09L167.26 10.84L175.24 10.84L175.24 46.39L169.09 46.39L169.09 34.67L169.70 18.99L159.20 46.39L154.79 46.39L144.31 19.02L144.92 34.67L144.92 46.39L138.77 46.39L138.77 10.84L146.78 10.84ZM197.75 46.39Q197.36 45.63 197.07 43.92Q194.24 46.88 190.14 46.88Q186.16 46.88 183.64 44.60Q181.13 42.33 181.13 38.99Q181.13 34.77 184.27 32.51Q187.40 30.25 193.24 30.25L196.88 30.25L196.88 28.52Q196.88 26.46 195.73 25.23Q194.58 24.00 192.24 24.00Q190.21 24.00 188.92 25.01Q187.62 26.03 187.62 27.59L181.69 27.59Q181.69 25.42 183.13 23.52Q184.57 21.63 187.05 20.56Q189.53 19.48 192.58 19.48Q197.22 19.48 199.98 21.81Q202.73 24.15 202.81 28.37L202.81 40.28Q202.81 43.85 203.81 45.97L203.81 46.39L197.75 46.39M191.24 42.11Q192.99 42.11 194.54 41.26Q196.09 40.41 196.88 38.96L196.88 33.98L193.68 33.98Q190.38 33.98 188.72 35.13Q187.06 36.28 187.06 38.38Q187.06 40.09 188.20 41.10Q189.33 42.11 191.24 42.11ZM222.85 25.39Q221.68 25.20 220.43 25.20Q216.36 25.20 214.94 28.32L214.94 46.39L209.01 46.39L209.01 19.97L214.67 19.97L214.82 22.92Q216.97 19.48 220.78 19.48Q222.05 19.48 222.88 19.82L222.85 25.39ZM236.99 42.14Q239.21 42.14 240.67 40.84Q242.14 39.55 242.24 37.65L247.83 37.65Q247.73 40.11 246.29 42.25Q244.85 44.38 242.38 45.63Q239.92 46.88 237.06 46.88Q231.52 46.88 228.27 43.29Q225.02 39.70 225.02 33.37L225.02 32.76Q225.02 26.73 228.25 23.11Q231.47 19.48 237.04 19.48Q241.75 19.48 244.71 22.23Q247.68 24.98 247.83 29.44L242.24 29.44Q242.14 27.17 240.69 25.71Q239.23 24.24 236.99 24.24Q234.11 24.24 232.54 26.33Q230.98 28.42 230.96 32.67L230.96 33.62Q230.96 37.92 232.51 40.03Q234.06 42.14 236.99 42.14ZM251.20 32.93Q251.20 29.05 252.73 25.94Q254.27 22.83 257.06 21.15Q259.84 19.48 263.45 19.48Q268.80 19.48 272.13 22.92Q275.46 26.37 275.73 32.06L275.76 33.45Q275.76 37.35 274.26 40.43Q272.75 43.51 269.96 45.19Q267.16 46.88 263.50 46.88Q257.91 46.88 254.55 43.15Q251.20 39.43 251.20 33.23L251.20 32.93M257.13 33.45Q257.13 37.52 258.81 39.83Q260.50 42.14 263.50 42.14Q266.50 42.14 268.18 39.79Q269.85 37.45 269.85 32.93Q269.85 28.93 268.13 26.59Q266.41 24.24 263.45 24.24Q260.55 24.24 258.84 26.55Q257.13 28.86 257.13 33.45ZM281.62 54.39L278.42 52.49Q279.83 50.27 280.36 48.62Q280.88 46.97 280.91 45.26L280.91 40.65L286.25 40.65L286.23 44.92Q286.21 47.51 284.92 50.11Q283.64 52.71 281.62 54.39ZM311.30 46.39L305.15 46.39L305.15 10.84L311.30 10.84L311.30 46.39ZM321.80 11.94L321.17 21.48L317.29 21.48L317.29 8.89L321.80 8.89L321.80 11.94ZM331.86 19.97L332.03 22.73Q334.81 19.48 339.65 19.48Q344.95 19.48 346.90 23.54Q349.78 19.48 355.00 19.48Q359.38 19.48 361.51 21.90Q363.65 24.32 363.70 29.03L363.70 46.39L357.76 46.39L357.76 29.20Q357.76 26.68 356.67 25.51Q355.57 24.34 353.03 24.34Q351.00 24.34 349.72 25.43Q348.44 26.51 347.92 28.27L347.95 46.39L342.02 46.39L342.02 29.00Q341.89 24.34 337.26 24.34Q333.69 24.34 332.20 27.25L332.20 46.39L326.27 46.39L326.27 19.97L331.86 19.97ZM398.02 46.39Q397.63 45.63 397.34 43.92Q394.51 46.88 390.41 46.88Q386.43 46.88 383.91 44.60Q381.40 42.33 381.40 38.99Q381.40 34.77 384.53 32.51Q387.67 30.25 393.51 30.25L397.14 30.25L397.14 28.52Q397.14 26.46 396.00 25.23Q394.85 24.00 392.50 24.00Q390.48 24.00 389.18 25.01Q387.89 26.03 387.89 27.59L381.96 27.59Q381.96 25.42 383.40 23.52Q384.84 21.63 387.32 20.56Q389.79 19.48 392.85 19.48Q397.49 19.48 400.24 21.81Q403.00 24.15 403.08 28.37L403.08 40.28Q403.08 43.85 404.08 45.97L404.08 46.39L398.02 46.39M391.50 42.11Q393.26 42.11 394.81 41.26Q396.36 40.41 397.14 38.96L397.14 33.98L393.95 33.98Q390.65 33.98 388.99 35.13Q387.33 36.28 387.33 38.38Q387.33 40.09 388.46 41.10Q389.60 42.11 391.50 42.11ZM436.87 10.84L443.02 10.84L443.02 35.77Q443.02 40.87 439.83 43.87Q436.65 46.88 431.42 46.88Q425.85 46.88 422.83 44.07Q419.80 41.26 419.80 36.25L425.95 36.25Q425.95 39.09 427.36 40.52Q428.76 41.94 431.42 41.94Q433.91 41.94 435.39 40.30Q436.87 38.65 436.87 35.74L436.87 10.84ZM465.50 43.80Q462.89 46.88 458.08 46.88Q453.78 46.88 451.57 44.36Q449.37 41.85 449.37 37.08L449.37 19.97L455.30 19.97L455.30 37.01Q455.30 42.04 459.47 42.04Q463.79 42.04 465.31 38.94L465.31 19.97L471.24 19.97L471.24 46.39L465.65 46.39L465.50 43.80ZM482.79 19.97L482.96 23.02Q485.89 19.48 490.65 19.48Q498.90 19.48 499.05 28.93L499.05 46.39L493.12 46.39L493.12 29.27Q493.12 26.76 492.03 25.55Q490.94 24.34 488.48 24.34Q484.89 24.34 483.13 27.59L483.13 46.39L477.20 46.39L477.20 19.97L482.79 19.97ZM511.40 46.39L505.47 46.39L505.47 19.97L511.40 19.97L511.40 46.39M505.10 13.11Q505.10 11.74 505.97 10.84Q506.84 9.94 508.45 9.94Q510.06 9.94 510.94 10.84Q511.82 11.74 511.82 13.11Q511.82 14.45 510.94 15.34Q510.06 16.24 508.45 16.24Q506.84 16.24 505.97 15.34Q505.10 14.45 505.10 13.11ZM516.75 32.93Q516.75 29.05 518.29 25.94Q519.82 22.83 522.61 21.15Q525.39 19.48 529.00 19.48Q534.35 19.48 537.68 22.92Q541.02 26.37 541.28 32.06L541.31 33.45Q541.31 37.35 539.81 40.43Q538.31 43.51 535.51 45.19Q532.71 46.88 529.05 46.88Q523.46 46.88 520.10 43.15Q516.75 39.43 516.75 33.23L516.75 32.93M522.68 33.45Q522.68 37.52 524.37 39.83Q526.05 42.14 529.05 42.14Q532.06 42.14 533.73 39.79Q535.40 37.45 535.40 32.93Q535.40 28.93 533.68 26.59Q531.96 24.24 529.00 24.24Q526.10 24.24 524.39 26.55Q522.68 28.86 522.68 33.45ZM560.16 25.39Q558.98 25.20 557.74 25.20Q553.66 25.20 552.25 28.32L552.25 46.39L546.31 46.39L546.31 19.97L551.98 19.97L552.12 22.92Q554.27 19.48 558.08 19.48Q559.35 19.48 560.18 19.82L560.16 25.39ZM604.81 37.60L610.28 10.84L616.41 10.84L608.20 46.39L602.29 46.39L595.53 20.43L588.62 46.39L582.69 46.39L574.49 10.84L580.62 10.84L586.13 37.55L592.92 10.84L598.10 10.84L604.81 37.60ZM631.23 46.88Q625.59 46.88 622.08 43.32Q618.58 39.77 618.58 33.86L618.58 33.13Q618.58 29.17 620.10 26.06Q621.63 22.95 624.39 21.22Q627.15 19.48 630.54 19.48Q635.94 19.48 638.88 22.92Q641.82 26.37 641.82 32.67L641.82 35.06L624.56 35.06Q624.83 38.33 626.75 40.23Q628.66 42.14 631.57 42.14Q635.64 42.14 638.21 38.84L641.41 41.89Q639.82 44.26 637.17 45.57Q634.52 46.88 631.23 46.88M630.52 24.24Q628.08 24.24 626.57 25.95Q625.07 27.66 624.66 30.71L635.96 30.71L635.96 30.27Q635.77 27.29 634.38 25.77Q632.98 24.24 630.52 24.24ZM669.60 33.45Q669.60 39.60 666.86 43.24Q664.11 46.88 659.30 46.88Q654.66 46.88 652.08 43.53L651.78 46.39L646.41 46.39L646.41 8.89L652.34 8.89L652.34 22.51Q654.91 19.48 659.25 19.48Q664.09 19.48 666.85 23.07Q669.60 26.66 669.60 33.11L669.60 33.45M663.67 32.93Q663.67 28.64 662.16 26.49Q660.64 24.34 657.76 24.34Q653.91 24.34 652.34 27.71L652.34 38.60Q653.93 42.04 657.81 42.04Q660.60 42.04 662.11 39.97Q663.62 37.89 663.67 33.69L663.67 32.93ZM687.60 46.39L687.60 10.84L698.10 10.84Q702.81 10.84 706.46 12.94Q710.11 15.04 712.11 18.90Q714.11 22.75 714.11 27.73L714.11 29.52Q714.11 34.57 712.10 38.40Q710.08 42.24 706.36 44.31Q702.64 46.39 697.83 46.39L687.60 46.39M693.77 15.82L693.77 41.46L697.80 41.46Q702.66 41.46 705.26 38.42Q707.86 35.38 707.91 29.69L707.91 27.71Q707.91 21.92 705.40 18.87Q702.88 15.82 698.10 15.82L693.77 15.82ZM731.32 46.88Q725.68 46.88 722.18 43.32Q718.68 39.77 718.68 33.86L718.68 33.13Q718.68 29.17 720.20 26.06Q721.73 22.95 724.49 21.22Q727.25 19.48 730.64 19.48Q736.04 19.48 738.98 22.92Q741.92 26.37 741.92 32.67L741.92 35.06L724.66 35.06Q724.93 38.33 726.84 40.23Q728.76 42.14 731.67 42.14Q735.74 42.14 738.31 38.84L741.50 41.89Q739.92 44.26 737.27 45.57Q734.62 46.88 731.32 46.88M730.62 24.24Q728.17 24.24 726.67 25.95Q725.17 27.66 724.76 30.71L736.06 30.71L736.06 30.27Q735.86 27.29 734.47 25.77Q733.08 24.24 730.62 24.24ZM755.52 38.87L761.11 19.97L767.24 19.97L758.08 46.39L752.93 46.39L743.70 19.97L749.85 19.97L755.52 38.87ZM782.25 46.88Q776.61 46.88 773.11 43.32Q769.60 39.77 769.60 33.86L769.60 33.13Q769.60 29.17 771.13 26.06Q772.66 22.95 775.42 21.22Q778.17 19.48 781.57 19.48Q786.96 19.48 789.90 22.92Q792.85 26.37 792.85 32.67L792.85 35.06L775.59 35.06Q775.85 38.33 777.77 40.23Q779.69 42.14 782.59 42.14Q786.67 42.14 789.23 38.84L792.43 41.89Q790.84 44.26 788.20 45.57Q785.55 46.88 782.25 46.88M781.54 24.24Q779.10 24.24 777.60 25.95Q776.10 27.66 775.68 30.71L786.99 30.71L786.99 30.27Q786.79 27.29 785.40 25.77Q784.01 24.24 781.54 24.24ZM803.76 46.39L797.83 46.39L797.83 8.89L803.76 8.89L803.76 46.39ZM809.11 32.93Q809.11 29.05 810.64 25.94Q812.18 22.83 814.97 21.15Q817.75 19.48 821.36 19.48Q826.71 19.48 830.04 22.92Q833.37 26.37 833.64 32.06L833.67 33.45Q833.67 37.35 832.17 40.43Q830.66 43.51 827.87 45.19Q825.07 46.88 821.41 46.88Q815.82 46.88 812.46 43.15Q809.11 39.43 809.11 33.23L809.11 32.93M815.04 33.45Q815.04 37.52 816.72 39.83Q818.41 42.14 821.41 42.14Q824.41 42.14 826.09 39.79Q827.76 37.45 827.76 32.93Q827.76 28.93 826.04 26.59Q824.32 24.24 821.36 24.24Q818.46 24.24 816.75 26.55Q815.04 28.86 815.04 33.45ZM861.82 33.45Q861.82 39.58 859.03 43.23Q856.25 46.88 851.56 46.88Q847.22 46.88 844.60 44.02L844.60 56.54L838.67 56.54L838.67 19.97L844.14 19.97L844.38 22.66Q847.00 19.48 851.49 19.48Q856.32 19.48 859.07 23.08Q861.82 26.68 861.82 33.08L861.82 33.45M855.91 32.93Q855.91 28.98 854.33 26.66Q852.76 24.34 849.83 24.34Q846.19 24.34 844.60 27.34L844.60 39.06Q846.22 42.14 849.88 42.14Q852.71 42.14 854.31 39.86Q855.91 37.57 855.91 32.93ZM878.47 46.88Q872.83 46.88 869.32 43.32Q865.82 39.77 865.82 33.86L865.82 33.13Q865.82 29.17 867.35 26.06Q868.87 22.95 871.63 21.22Q874.39 19.48 877.78 19.48Q883.18 19.48 886.12 22.92Q889.06 26.37 889.06 32.67L889.06 35.06L871.80 35.06Q872.07 38.33 873.99 40.23Q875.90 42.14 878.81 42.14Q882.89 42.14 885.45 38.84L888.65 41.89Q887.06 44.26 884.41 45.57Q881.76 46.88 878.47 46.88M877.76 24.24Q875.32 24.24 873.82 25.95Q872.31 27.66 871.90 30.71L883.20 30.71L883.20 30.27Q883.01 27.29 881.62 25.77Q880.22 24.24 877.76 24.24ZM907.50 25.39Q906.32 25.20 905.08 25.20Q901.00 25.20 899.58 28.32L899.58 46.39L893.65 46.39L893.65 19.97L899.32 19.97L899.46 22.92Q901.61 19.48 905.42 19.48Q906.69 19.48 907.52 19.82L907.50 25.39Z"/></g><g transform="translate(0, 62.20703125)"><path d=""/></g></g></g></svg>